<mxfile host="app.diagrams.net" agent="Mozilla/5.0 (Macintosh; Intel Mac OS X 10_15_7) AppleWebKit/537.36 (KHTML, like Gecko) Chrome/136.0.0.0 Safari/537.36" version="27.0.6">
  <diagram name="Page-1" id="OVJO_ER-b-EG_t2DPnrd">
    <mxGraphModel dx="1543" dy="852" grid="1" gridSize="10" guides="1" tooltips="1" connect="1" arrows="1" fold="1" page="1" pageScale="1" pageWidth="850" pageHeight="1100" math="0" shadow="0">
      <root>
        <mxCell id="0" />
        <mxCell id="1" parent="0" />
        <mxCell id="PTJkl3OHGFcnngsKw6Xp-1" value="" style="rounded=0;whiteSpace=wrap;html=1;" parent="1" vertex="1">
          <mxGeometry x="30" y="40" width="670" height="590" as="geometry" />
        </mxCell>
        <mxCell id="PTJkl3OHGFcnngsKw6Xp-2" value="Click for Energy" style="ellipse;whiteSpace=wrap;html=1;aspect=fixed;fillColor=#fff2cc;strokeColor=#d6b656;" parent="1" vertex="1">
          <mxGeometry x="115" y="190" width="80" height="80" as="geometry" />
        </mxCell>
        <mxCell id="PTJkl3OHGFcnngsKw6Xp-4" value="&lt;b&gt;&lt;font style=&quot;font-size: 17px;&quot;&gt;Energy: 100&lt;/font&gt;&lt;/b&gt;" style="text;html=1;align=center;verticalAlign=middle;whiteSpace=wrap;rounded=0;" parent="1" vertex="1">
          <mxGeometry x="98.75" y="147.75" width="112.5" height="30" as="geometry" />
        </mxCell>
        <mxCell id="PTJkl3OHGFcnngsKw6Xp-5" value="&lt;font style=&quot;font-size: 20px;&quot;&gt;Space Colonization Game&lt;/font&gt;" style="text;html=1;align=center;verticalAlign=middle;whiteSpace=wrap;rounded=0;fillColor=#00CC66;" parent="1" vertex="1">
          <mxGeometry x="62.5" y="66.75" width="185" height="65.5" as="geometry" />
        </mxCell>
        <mxCell id="PTJkl3OHGFcnngsKw6Xp-6" value="Colony Resources" style="text;html=1;align=center;verticalAlign=middle;whiteSpace=wrap;rounded=0;" parent="1" vertex="1">
          <mxGeometry x="352.5" y="147.75" width="110" height="30" as="geometry" />
        </mxCell>
        <mxCell id="PTJkl3OHGFcnngsKw6Xp-7" value="&lt;b&gt;Food&lt;/b&gt;" style="text;html=1;align=center;verticalAlign=middle;whiteSpace=wrap;rounded=0;" parent="1" vertex="1">
          <mxGeometry x="347.5" y="177.75" width="60" height="30" as="geometry" />
        </mxCell>
        <mxCell id="PTJkl3OHGFcnngsKw6Xp-8" value="1" style="rounded=0;whiteSpace=wrap;html=1;" parent="1" vertex="1">
          <mxGeometry x="427.5" y="177.75" width="30" height="30" as="geometry" />
        </mxCell>
        <mxCell id="PTJkl3OHGFcnngsKw6Xp-9" value="" style="html=1;verticalLabelPosition=bottom;labelBackgroundColor=#ffffff;verticalAlign=top;shadow=0;dashed=0;strokeWidth=2;shape=mxgraph.ios7.misc.add;fillColor=#00dd00;strokeColor=#ffffff;sketch=0;" parent="1" vertex="1">
          <mxGeometry x="460.5" y="182.25" width="22" height="21" as="geometry" />
        </mxCell>
        <mxCell id="PTJkl3OHGFcnngsKw6Xp-10" value="" style="shape=image;html=1;verticalAlign=top;verticalLabelPosition=bottom;labelBackgroundColor=#ffffff;imageAspect=0;aspect=fixed;image=https://cdn4.iconfinder.com/data/icons/user-interface-784/32/UI_minus_remove_delete_cancel_negative-128.png" parent="1" vertex="1">
          <mxGeometry x="400" y="182.25" width="20" height="20" as="geometry" />
        </mxCell>
        <mxCell id="PTJkl3OHGFcnngsKw6Xp-11" value="Buy (10)" style="ellipse;whiteSpace=wrap;html=1;" parent="1" vertex="1">
          <mxGeometry x="497.5" y="172.25" width="35" height="40" as="geometry" />
        </mxCell>
        <mxCell id="PTJkl3OHGFcnngsKw6Xp-12" value="&lt;b&gt;Air&lt;/b&gt;" style="text;html=1;align=center;verticalAlign=middle;whiteSpace=wrap;rounded=0;" parent="1" vertex="1">
          <mxGeometry x="347.5" y="231.75" width="60" height="30" as="geometry" />
        </mxCell>
        <mxCell id="PTJkl3OHGFcnngsKw6Xp-13" value="1" style="rounded=0;whiteSpace=wrap;html=1;" parent="1" vertex="1">
          <mxGeometry x="425" y="232.25" width="30" height="30" as="geometry" />
        </mxCell>
        <mxCell id="PTJkl3OHGFcnngsKw6Xp-14" value="" style="html=1;verticalLabelPosition=bottom;labelBackgroundColor=#ffffff;verticalAlign=top;shadow=0;dashed=0;strokeWidth=2;shape=mxgraph.ios7.misc.add;fillColor=#00dd00;strokeColor=#ffffff;sketch=0;" parent="1" vertex="1">
          <mxGeometry x="458" y="236.75" width="22" height="21" as="geometry" />
        </mxCell>
        <mxCell id="PTJkl3OHGFcnngsKw6Xp-15" value="" style="shape=image;html=1;verticalAlign=top;verticalLabelPosition=bottom;labelBackgroundColor=#ffffff;imageAspect=0;aspect=fixed;image=https://cdn4.iconfinder.com/data/icons/user-interface-784/32/UI_minus_remove_delete_cancel_negative-128.png" parent="1" vertex="1">
          <mxGeometry x="400" y="237.75" width="20" height="20" as="geometry" />
        </mxCell>
        <mxCell id="PTJkl3OHGFcnngsKw6Xp-16" value="Buy&lt;div&gt;(6)&lt;/div&gt;" style="ellipse;whiteSpace=wrap;html=1;" parent="1" vertex="1">
          <mxGeometry x="497.5" y="222.25" width="35" height="40" as="geometry" />
        </mxCell>
        <mxCell id="PTJkl3OHGFcnngsKw6Xp-17" value="&lt;b&gt;Water&lt;/b&gt;" style="text;html=1;align=center;verticalAlign=middle;whiteSpace=wrap;rounded=0;" parent="1" vertex="1">
          <mxGeometry x="347.5" y="277.75" width="60" height="30" as="geometry" />
        </mxCell>
        <mxCell id="PTJkl3OHGFcnngsKw6Xp-18" value="1" style="rounded=0;whiteSpace=wrap;html=1;" parent="1" vertex="1">
          <mxGeometry x="427.5" y="277.75" width="30" height="30" as="geometry" />
        </mxCell>
        <mxCell id="PTJkl3OHGFcnngsKw6Xp-19" value="" style="html=1;verticalLabelPosition=bottom;labelBackgroundColor=#ffffff;verticalAlign=top;shadow=0;dashed=0;strokeWidth=2;shape=mxgraph.ios7.misc.add;fillColor=#00dd00;strokeColor=#ffffff;sketch=0;" parent="1" vertex="1">
          <mxGeometry x="462.5" y="282.25" width="22" height="21" as="geometry" />
        </mxCell>
        <mxCell id="PTJkl3OHGFcnngsKw6Xp-20" value="" style="shape=image;html=1;verticalAlign=top;verticalLabelPosition=bottom;labelBackgroundColor=#ffffff;imageAspect=0;aspect=fixed;image=https://cdn4.iconfinder.com/data/icons/user-interface-784/32/UI_minus_remove_delete_cancel_negative-128.png" parent="1" vertex="1">
          <mxGeometry x="400" y="282.25" width="20" height="20" as="geometry" />
        </mxCell>
        <mxCell id="PTJkl3OHGFcnngsKw6Xp-21" value="Buy (4)" style="ellipse;whiteSpace=wrap;html=1;" parent="1" vertex="1">
          <mxGeometry x="497.5" y="272.25" width="35" height="40" as="geometry" />
        </mxCell>
        <mxCell id="PTJkl3OHGFcnngsKw6Xp-26" value="&lt;font style=&quot;color: rgb(249, 249, 249); font-size: 17px;&quot;&gt;News: Aliens are attacking, Lose 50 energy&lt;/font&gt;" style="rounded=0;whiteSpace=wrap;html=1;align=left;fillColor=#FF3333;strokeColor=#b85450;" parent="1" vertex="1">
          <mxGeometry x="350" y="69.5" width="300" height="60" as="geometry" />
        </mxCell>
        <mxCell id="PTJkl3OHGFcnngsKw6Xp-27" value="&lt;b&gt;Food Production Plant&lt;/b&gt;&lt;div&gt;&lt;b&gt;(5/10s) Lv1&lt;/b&gt;&lt;b&gt;&lt;/b&gt;&lt;/div&gt;" style="text;html=1;align=center;verticalAlign=middle;whiteSpace=wrap;rounded=0;" parent="1" vertex="1">
          <mxGeometry x="350" y="369.5" width="140" height="30" as="geometry" />
        </mxCell>
        <mxCell id="PTJkl3OHGFcnngsKw6Xp-31" value="Buy (200)" style="ellipse;whiteSpace=wrap;html=1;" parent="1" vertex="1">
          <mxGeometry x="500" y="365" width="35" height="40" as="geometry" />
        </mxCell>
        <mxCell id="PTJkl3OHGFcnngsKw6Xp-32" value="Upgrade" style="ellipse;whiteSpace=wrap;html=1;" parent="1" vertex="1">
          <mxGeometry x="550" y="360" width="55" height="49" as="geometry" />
        </mxCell>
        <mxCell id="PTJkl3OHGFcnngsKw6Xp-33" value="Colony Production Plants" style="text;html=1;align=center;verticalAlign=middle;whiteSpace=wrap;rounded=0;" parent="1" vertex="1">
          <mxGeometry x="350" y="330" width="150" height="30" as="geometry" />
        </mxCell>
        <mxCell id="PTJkl3OHGFcnngsKw6Xp-34" value="&lt;b&gt;Air Production Plant&lt;/b&gt;&lt;div&gt;&lt;b&gt;(5/10s) Lv1&lt;/b&gt;&lt;b&gt;&lt;/b&gt;&lt;/div&gt;" style="text;html=1;align=center;verticalAlign=middle;whiteSpace=wrap;rounded=0;" parent="1" vertex="1">
          <mxGeometry x="350" y="423.5" width="140" height="30" as="geometry" />
        </mxCell>
        <mxCell id="PTJkl3OHGFcnngsKw6Xp-38" value="Buy (150)" style="ellipse;whiteSpace=wrap;html=1;" parent="1" vertex="1">
          <mxGeometry x="500" y="419" width="35" height="40" as="geometry" />
        </mxCell>
        <mxCell id="PTJkl3OHGFcnngsKw6Xp-39" value="Upgrade" style="ellipse;whiteSpace=wrap;html=1;" parent="1" vertex="1">
          <mxGeometry x="550" y="414" width="55" height="49" as="geometry" />
        </mxCell>
        <mxCell id="PTJkl3OHGFcnngsKw6Xp-40" value="&lt;b&gt;Water Production Plant&lt;/b&gt;&lt;div&gt;&lt;b&gt;(5/10s) Lv1&lt;/b&gt;&lt;b&gt;&lt;/b&gt;&lt;/div&gt;" style="text;html=1;align=center;verticalAlign=middle;whiteSpace=wrap;rounded=0;" parent="1" vertex="1">
          <mxGeometry x="350" y="483.5" width="140" height="30" as="geometry" />
        </mxCell>
        <mxCell id="PTJkl3OHGFcnngsKw6Xp-44" value="Buy&amp;nbsp;&lt;div&gt;(180)&lt;/div&gt;" style="ellipse;whiteSpace=wrap;html=1;" parent="1" vertex="1">
          <mxGeometry x="500" y="479" width="35" height="40" as="geometry" />
        </mxCell>
        <mxCell id="PTJkl3OHGFcnngsKw6Xp-45" value="Upgrade" style="ellipse;whiteSpace=wrap;html=1;" parent="1" vertex="1">
          <mxGeometry x="550" y="474" width="55" height="49" as="geometry" />
        </mxCell>
        <mxCell id="PTJkl3OHGFcnngsKw6Xp-46" value="Amount" style="text;html=1;align=center;verticalAlign=middle;whiteSpace=wrap;rounded=0;" parent="1" vertex="1">
          <mxGeometry x="532.5" y="147.75" width="60" height="30" as="geometry" />
        </mxCell>
        <mxCell id="PTJkl3OHGFcnngsKw6Xp-47" value="5" style="rounded=0;whiteSpace=wrap;html=1;" parent="1" vertex="1">
          <mxGeometry x="546.25" y="172.25" width="32.5" height="30" as="geometry" />
        </mxCell>
        <mxCell id="PTJkl3OHGFcnngsKw6Xp-48" value="5" style="rounded=0;whiteSpace=wrap;html=1;" parent="1" vertex="1">
          <mxGeometry x="546.25" y="227.25" width="32.5" height="30" as="geometry" />
        </mxCell>
        <mxCell id="PTJkl3OHGFcnngsKw6Xp-49" value="5" style="rounded=0;whiteSpace=wrap;html=1;" parent="1" vertex="1">
          <mxGeometry x="546.25" y="277.75" width="32.5" height="30" as="geometry" />
        </mxCell>
        <mxCell id="PTJkl3OHGFcnngsKw6Xp-50" value="&lt;font style=&quot;color: rgb(0, 102, 0);&quot;&gt;+5&lt;/font&gt;" style="text;html=1;align=center;verticalAlign=middle;whiteSpace=wrap;rounded=0;" parent="1" vertex="1">
          <mxGeometry x="572.5" y="172.25" width="60" height="30" as="geometry" />
        </mxCell>
        <mxCell id="PTJkl3OHGFcnngsKw6Xp-55" value="1" style="rounded=0;whiteSpace=wrap;html=1;" parent="1" vertex="1">
          <mxGeometry x="623.75" y="378.5" width="32.5" height="30" as="geometry" />
        </mxCell>
        <mxCell id="PTJkl3OHGFcnngsKw6Xp-56" value="1" style="rounded=0;whiteSpace=wrap;html=1;" parent="1" vertex="1">
          <mxGeometry x="623.75" y="433.5" width="32.5" height="30" as="geometry" />
        </mxCell>
        <mxCell id="PTJkl3OHGFcnngsKw6Xp-57" value="1" style="rounded=0;whiteSpace=wrap;html=1;" parent="1" vertex="1">
          <mxGeometry x="623.75" y="484" width="32.5" height="30" as="geometry" />
        </mxCell>
        <mxCell id="PTJkl3OHGFcnngsKw6Xp-58" value="Current Level" style="text;html=1;align=center;verticalAlign=middle;whiteSpace=wrap;rounded=0;" parent="1" vertex="1">
          <mxGeometry x="610" y="325.5" width="60" height="30" as="geometry" />
        </mxCell>
        <mxCell id="PTJkl3OHGFcnngsKw6Xp-59" value="&lt;b&gt;&lt;font style=&quot;font-size: 14px;&quot;&gt;Date: March Year 5&lt;/font&gt;&lt;/b&gt;" style="text;html=1;align=center;verticalAlign=middle;whiteSpace=wrap;rounded=0;" parent="1" vertex="1">
          <mxGeometry x="82.5" y="300" width="145" height="30" as="geometry" />
        </mxCell>
        <mxCell id="PTJkl3OHGFcnngsKw6Xp-60" value="&lt;b&gt;Energy Generation Plant (5/10s) Lv1&lt;/b&gt;" style="text;html=1;align=center;verticalAlign=middle;whiteSpace=wrap;rounded=0;" parent="1" vertex="1">
          <mxGeometry x="340" y="539.5" width="147.5" height="30" as="geometry" />
        </mxCell>
        <mxCell id="PTJkl3OHGFcnngsKw6Xp-64" value="Buy (300)" style="ellipse;whiteSpace=wrap;html=1;" parent="1" vertex="1">
          <mxGeometry x="497.5" y="535" width="35" height="40" as="geometry" />
        </mxCell>
        <mxCell id="PTJkl3OHGFcnngsKw6Xp-65" value="Upgrade" style="ellipse;whiteSpace=wrap;html=1;" parent="1" vertex="1">
          <mxGeometry x="547.5" y="530" width="55" height="49" as="geometry" />
        </mxCell>
        <mxCell id="PTJkl3OHGFcnngsKw6Xp-66" value="1" style="rounded=0;whiteSpace=wrap;html=1;" parent="1" vertex="1">
          <mxGeometry x="621.25" y="540" width="32.5" height="30" as="geometry" />
        </mxCell>
        <mxCell id="PTJkl3OHGFcnngsKw6Xp-67" value="&lt;b&gt;&lt;font style=&quot;font-size: 15px;&quot;&gt;Current Population: 123&lt;/font&gt;&lt;/b&gt;" style="text;html=1;align=center;verticalAlign=middle;whiteSpace=wrap;rounded=0;" parent="1" vertex="1">
          <mxGeometry x="70" y="355.5" width="192.5" height="30" as="geometry" />
        </mxCell>
        <mxCell id="PTJkl3OHGFcnngsKw6Xp-71" value="" style="shape=image;verticalLabelPosition=bottom;labelBackgroundColor=default;verticalAlign=top;aspect=fixed;imageAspect=0;image=https://plot.ly/~destinyamartin96/2.png;" parent="1" vertex="1">
          <mxGeometry x="95.95" y="380" width="163.1" height="116.5" as="geometry" />
        </mxCell>
        <mxCell id="PTJkl3OHGFcnngsKw6Xp-72" value="&lt;font style=&quot;color: rgb(255, 51, 51); font-size: 15px;&quot;&gt;-50&lt;/font&gt;" style="text;html=1;align=center;verticalAlign=middle;whiteSpace=wrap;rounded=0;" parent="1" vertex="1">
          <mxGeometry x="240" y="355.5" width="60" height="30" as="geometry" />
        </mxCell>
        <mxCell id="PTJkl3OHGFcnngsKw6Xp-73" value="&lt;font style=&quot;color: rgb(0, 102, 0);&quot;&gt;+5&lt;/font&gt;" style="text;html=1;align=center;verticalAlign=middle;whiteSpace=wrap;rounded=0;" parent="1" vertex="1">
          <mxGeometry x="187.5" y="147.75" width="60" height="30" as="geometry" />
        </mxCell>
        <mxCell id="PTJkl3OHGFcnngsKw6Xp-75" value="" style="rounded=0;whiteSpace=wrap;html=1;" parent="1" vertex="1">
          <mxGeometry x="10" y="640" width="690" height="400" as="geometry" />
        </mxCell>
        <mxCell id="PTJkl3OHGFcnngsKw6Xp-76" value="&lt;font style=&quot;font-size: 20px;&quot;&gt;Space Colonization Game&lt;/font&gt;" style="text;html=1;align=center;verticalAlign=middle;whiteSpace=wrap;rounded=0;fillColor=#00CC66;" parent="1" vertex="1">
          <mxGeometry x="262.5" y="660" width="185" height="65.5" as="geometry" />
        </mxCell>
        <mxCell id="PTJkl3OHGFcnngsKw6Xp-77" value="&lt;font style=&quot;font-size: 24px;&quot;&gt;Start&lt;/font&gt;" style="rounded=0;whiteSpace=wrap;html=1;fillColor=#00CC66;strokeColor=#00FF80;" parent="1" vertex="1">
          <mxGeometry x="295" y="830" width="120" height="60" as="geometry" />
        </mxCell>
        <mxCell id="PTJkl3OHGFcnngsKw6Xp-79" value="&lt;font style=&quot;font-size: 24px;&quot;&gt;Type Colony Name&lt;/font&gt;" style="rounded=0;whiteSpace=wrap;html=1;align=center;" parent="1" vertex="1">
          <mxGeometry x="210" y="750" width="300" height="60" as="geometry" />
        </mxCell>
        <mxCell id="PTJkl3OHGFcnngsKw6Xp-82" value="&lt;font style=&quot;font-size: 17px;&quot;&gt;Morale: Very High&lt;/font&gt;" style="rounded=1;whiteSpace=wrap;html=1;fillColor=#d5e8d4;strokeColor=#82b366;" parent="1" vertex="1">
          <mxGeometry x="78.75" y="539.5" width="152.5" height="56" as="geometry" />
        </mxCell>
      </root>
    </mxGraphModel>
  </diagram>
</mxfile>
